<svg width="883" height="307" viewBox="0 0 883 307" fill="none" xmlns="http://www.w3.org/2000/svg">
<path d="M816.218 206.604C805.863 206.604 795.802 205.041 786.033 201.915C776.46 198.79 767.668 193.71 759.658 186.677C751.91 179.685 745.351 170.317 739.979 158.574C739.668 157.893 739.934 157.09 740.585 156.721L762.485 144.32C763.188 143.922 764.08 144.174 764.48 144.875C771.125 156.523 778.407 164.986 786.326 170.265C794.532 175.736 804.789 178.471 817.097 178.471C829.015 178.471 838.002 175.834 844.058 170.559C850.31 165.284 853.436 158.055 853.436 148.872C853.436 143.402 852.068 138.615 849.333 134.513C846.793 130.41 842.202 126.6 835.56 123.083C828.917 119.567 819.539 116.343 807.426 113.413C792.187 109.505 780.27 104.719 771.673 99.0529C763.272 93.1918 757.411 86.5492 754.09 79.1251C750.769 71.5056 749.108 63.3001 749.108 54.5084C749.108 43.5677 751.648 34.0922 756.727 26.082C761.807 17.8764 769.134 11.5269 778.707 7.03335C788.28 2.34445 799.611 0 812.701 0C828.331 0 841.225 3.02825 851.385 9.08474C861.139 14.7124 869.453 22.4113 876.325 32.1815C876.796 32.8499 876.607 33.7727 875.919 34.2146L853.649 48.5315C853.027 48.9313 852.204 48.7988 851.728 48.233C845.922 41.3336 839.848 36.392 833.508 33.4084C827.061 30.0871 820.125 28.4264 812.701 28.4264C801.37 28.4264 792.676 30.6732 786.619 35.1667C780.758 39.6602 777.827 46.1075 777.827 54.5084C777.827 61.7371 780.563 67.989 786.033 73.264C791.699 78.539 802.64 83.1302 818.855 87.0376C835.266 91.1404 848.063 96.0246 857.246 101.69C866.623 107.161 873.168 113.803 876.88 121.618C880.788 129.238 882.741 138.42 882.741 149.165C882.741 159.911 880.006 169.582 874.536 178.178C869.066 186.774 861.348 193.71 851.385 198.985C841.421 204.065 829.698 206.604 816.218 206.604Z" fill="url(#paint0_linear_189_102)"/>
<path fill-rule="evenodd" clip-rule="evenodd" d="M29.3056 200.755V137.736H70.3334C84.0093 137.736 95.927 134.806 106.086 128.945C116.441 122.888 124.451 114.78 130.117 104.621C135.783 94.2663 138.615 82.8371 138.615 70.3334C138.615 57.6343 135.783 46.2051 130.117 36.0459C124.451 25.8866 116.539 17.7787 106.379 11.7222C96.22 5.66575 84.3024 2.6375 70.6265 2.6375H1.45365C0.650821 2.6375 0 3.28832 0 4.09115V200.755C0 201.558 0.650823 202.209 1.45365 202.209H27.8519C28.6548 202.209 29.3056 201.558 29.3056 200.755ZM65.3515 110.189H29.3056V30.1848H65.6445C78.539 30.1848 88.7959 33.6037 96.4154 40.4417C104.23 47.0843 108.138 57.0482 108.138 70.3334C108.138 82.8371 104.23 92.6057 96.4154 99.639C88.6006 106.672 78.2459 110.189 65.3515 110.189Z" fill="url(#paint1_linear_189_102)"/>
<path fill-rule="evenodd" clip-rule="evenodd" d="M343.139 200.755C343.139 201.558 343.789 202.209 344.592 202.209H370.991C371.793 202.209 372.444 201.558 372.444 200.755V131.875H414.984L454.083 201.467C454.341 201.925 454.825 202.209 455.351 202.209H484.252C485.363 202.209 486.064 201.012 485.519 200.043L444.476 126.99C447.138 125.951 449.698 124.747 452.155 123.377C462.51 117.711 470.52 109.994 476.186 100.225C481.852 90.4566 484.685 79.5158 484.685 67.4029C484.685 55.2899 481.852 44.3491 476.186 34.5806C470.52 24.8121 462.51 17.0949 452.155 11.4292C441.996 5.56807 430.079 2.6375 416.403 2.6375H344.592C343.789 2.6375 343.139 3.28832 343.139 4.09115V200.755ZM372.444 104.328H411.421C424.315 104.328 434.67 101.104 442.485 94.6571C450.299 88.0145 454.207 78.9297 454.207 67.4029C454.207 55.0945 450.299 45.8144 442.485 39.5626C434.67 33.3107 424.315 30.1848 411.421 30.1848H372.444V104.328Z" fill="url(#paint2_linear_189_102)"/>
<path fill-rule="evenodd" clip-rule="evenodd" d="M481.087 305.527L472.133 296.385C468.929 299.904 465.504 302.512 461.86 304.208C458.216 305.842 454.1 306.658 449.514 306.658C445.115 306.658 441.22 305.842 437.827 304.208C434.434 302.512 431.795 300.155 429.91 297.139C428.025 294.123 427.083 290.636 427.083 286.678C427.083 282.028 428.402 277.976 431.041 274.52C433.68 271.064 437.544 268.362 442.634 266.415C440.434 263.964 438.832 261.702 437.827 259.629C436.822 257.492 436.319 255.199 436.319 252.749C436.319 248.539 437.827 245.146 440.843 242.57C443.859 239.931 447.88 238.611 452.907 238.611C457.619 238.611 461.452 239.962 464.405 242.664C467.358 245.366 468.74 248.884 468.552 253.22H461.954C462.017 250.392 461.138 248.162 459.315 246.528C457.556 244.895 455.326 244.078 452.624 244.078C449.734 244.078 447.377 244.895 445.555 246.528C443.796 248.099 442.916 250.141 442.916 252.654C442.916 254.665 443.45 256.613 444.519 258.498C445.65 260.383 447.409 262.613 449.796 265.189L471.473 287.149C472.353 285.955 473.547 284.07 475.055 281.494L481.087 271.41H488.155L480.992 283.756C479.296 286.709 477.6 289.348 475.903 291.673L489.663 305.527H481.087ZM449.514 300.909C453.221 300.909 456.519 300.187 459.41 298.742C462.363 297.296 465.159 295.035 467.798 291.956L446.78 270.656C438.047 273.86 433.68 279.138 433.68 286.489C433.68 289.254 434.34 291.736 435.659 293.935C437.042 296.071 438.926 297.768 441.314 299.024C443.702 300.281 446.435 300.909 449.514 300.909Z" fill="url(#paint3_linear_189_102)"/>
<path d="M118.353 269.619V245.02H146.156V239.554H111.756V305.527H146.156V300.061H118.353V275.085H143.329V269.619H118.353Z" fill="url(#paint4_linear_189_102)"/>
<path fill-rule="evenodd" clip-rule="evenodd" d="M31.0235 271.504C34.7306 272.195 37.8722 274.08 40.4483 277.159C43.0244 280.238 44.3124 283.819 44.3124 287.903C44.3124 291.233 43.4642 294.249 41.7677 296.951C40.1341 299.59 37.7151 301.695 34.5107 303.266C31.3062 304.773 27.4735 305.527 23.0124 305.527H0.20442V239.648H22.3527C29.0129 239.648 34.0708 241.188 37.5266 244.266C41.0452 247.345 42.8045 251.335 42.8045 256.236C42.8045 260.32 41.7049 263.65 39.5058 266.226C37.3067 268.739 34.4792 270.499 31.0235 271.504ZM6.80177 268.771H22.1642C26.6253 268.771 30.0496 267.734 32.4372 265.661C34.8877 263.524 36.1129 260.603 36.1129 256.896C36.1129 253.251 34.8877 250.392 32.4372 248.319C30.0496 246.245 26.531 245.209 21.8814 245.209H6.80177V268.771ZM22.5412 299.967C27.3164 299.967 31.0235 298.836 33.6624 296.574C36.3642 294.312 37.7151 291.202 37.7151 287.243C37.7151 283.285 36.3014 280.143 33.4739 277.819C30.7093 275.431 26.9708 274.237 22.2584 274.237H6.80177V299.967H22.5412Z" fill="url(#paint5_linear_189_102)"/>
<path fill-rule="evenodd" clip-rule="evenodd" d="M91.5005 305.527L75.1956 278.007H63.0376V305.527H56.4402V239.648H76.2323C83.5836 239.648 89.1443 241.407 92.9142 244.926C96.7469 248.445 98.6633 253.063 98.6633 258.78C98.6633 263.556 97.281 267.64 94.5164 271.033C91.8146 274.363 87.7934 276.53 82.4527 277.536L99.4173 305.527H91.5005ZM63.0376 272.635H76.3265C81.4788 272.635 85.3429 271.378 87.9191 268.865C90.558 266.352 91.8775 262.99 91.8775 258.78C91.8775 254.445 90.6208 251.115 88.1075 248.79C85.5943 246.403 81.6358 245.209 76.2323 245.209H63.0376V272.635Z" fill="url(#paint6_linear_189_102)"/>
<path d="M239.078 239.648L220.417 305.527H213.066L196.478 249.356L179.513 305.527L172.35 305.622L154.066 239.648H161.135L176.215 297.422L193.085 239.648H200.436L216.835 297.422L232.009 239.648H239.078Z" fill="url(#paint7_linear_189_102)"/>
<path d="M255.767 269.619V245.02H283.57V239.554H249.17V305.527H283.57V300.061H255.767V275.085H280.743V269.619H255.767Z" fill="url(#paint8_linear_189_102)"/>
<path fill-rule="evenodd" clip-rule="evenodd" d="M331.63 305.527L315.325 278.007H303.167V305.527H296.57V239.648H316.362C323.713 239.648 329.274 241.407 333.044 244.926C336.877 248.445 338.793 253.063 338.793 258.78C338.793 263.556 337.411 267.64 334.646 271.033C331.944 274.363 327.923 276.53 322.582 277.536L339.547 305.527H331.63ZM303.167 272.635H316.456C321.608 272.635 325.473 271.378 328.049 268.865C330.688 266.352 332.007 262.99 332.007 258.78C332.007 254.445 330.751 251.115 328.237 248.79C325.724 246.403 321.766 245.209 316.362 245.209H303.167V272.635Z" fill="url(#paint9_linear_189_102)"/>
<path d="M374.316 279.892L395.428 239.648H388.077L371.018 273.86L353.865 239.648H346.419L367.719 279.892V305.527H374.316V279.892Z" fill="url(#paint10_linear_189_102)"/>
<path d="M531.148 275.085L559.705 305.527H568.376L537.274 272.541L568.093 239.648H559.705L531.148 270.467V239.648H524.55V305.527H531.148V275.085Z" fill="url(#paint11_linear_189_102)"/>
<path d="M584.715 239.648V305.527H578.117V239.648H584.715Z" fill="url(#paint12_linear_189_102)"/>
<path d="M638.202 245.115V239.648H594.942V245.115H613.32V305.527H619.918V245.115H638.202Z" fill="url(#paint13_linear_189_102)"/>
<path d="M645.603 272.541C645.603 266.069 647.017 260.288 649.844 255.199C652.672 250.047 656.536 246.057 661.437 243.23C666.338 240.339 671.804 238.894 677.836 238.894C685.187 238.894 691.47 240.653 696.685 244.172C701.963 247.628 705.796 252.529 708.184 258.875H700.455C698.57 254.414 695.68 250.926 691.785 248.413C687.952 245.9 683.302 244.643 677.836 244.643C672.998 244.643 668.631 245.774 664.735 248.036C660.903 250.298 657.887 253.565 655.688 257.838C653.488 262.048 652.389 266.949 652.389 272.541C652.389 278.133 653.488 283.034 655.688 287.243C657.887 291.453 660.903 294.689 664.735 296.951C668.631 299.213 672.998 300.344 677.836 300.344C683.302 300.344 687.952 299.119 691.785 296.668C695.68 294.155 698.57 290.699 700.455 286.301H708.184C705.796 292.584 701.963 297.454 696.685 300.909C691.408 304.365 685.124 306.093 677.836 306.093C671.804 306.093 666.338 304.679 661.437 301.852C656.536 298.962 652.672 294.972 649.844 289.882C647.017 284.793 645.603 279.012 645.603 272.541Z" fill="url(#paint14_linear_189_102)"/>
<path d="M770.245 305.527V239.648H763.647V269.242H727.927V239.648H721.33V305.527H727.927V274.708H763.647V305.527H770.245Z" fill="url(#paint15_linear_189_102)"/>
<path d="M791.894 245.02V269.619H816.87V275.085H791.894V300.061H819.697V305.527H785.297V239.554H819.697V245.02H791.894Z" fill="url(#paint16_linear_189_102)"/>
<path d="M875.768 305.527H882.366V239.648H875.768V294.972L839.294 239.648H832.697V305.527H839.294V250.11L875.768 305.527Z" fill="url(#paint17_linear_189_102)"/>
<path d="M511.685 102.477C511.685 87.6424 514.222 73.9788 519.297 61.4863C524.568 48.9939 531.887 38.1606 541.257 28.9864C550.626 19.8123 561.557 12.6877 574.05 7.6126C586.737 2.53753 600.498 0 615.333 0C629.973 0 643.539 2.53753 656.031 7.6126C668.524 12.6877 679.357 19.8123 688.531 28.9864C697.901 38.1606 705.123 48.9939 710.198 61.4863C715.468 73.9788 718.103 87.6424 718.103 102.477C718.103 102.69 718.103 102.903 718.102 103.116L688.236 103.116C688.238 102.904 688.238 102.691 688.238 102.477C688.238 88.0328 685.018 75.2475 678.576 64.1214C672.33 52.9954 663.741 44.2116 652.811 37.7702C641.88 31.3287 629.387 28.108 615.333 28.108C601.279 28.108 588.689 31.3287 577.563 37.7702C566.437 44.2116 557.653 52.9954 551.212 64.1214C544.77 75.2475 541.55 88.0328 541.55 102.477C541.55 102.691 541.55 102.904 541.552 103.116H511.686C511.685 102.903 511.685 102.69 511.685 102.477Z" fill="url(#paint18_linear_189_102)"/>
<path d="M676.895 103.116C676.829 94.4225 675.247 86.4029 672.148 79.0573C669.099 71.5521 664.76 65.0438 659.131 59.5322C653.62 54.0206 647.111 49.7403 639.606 46.6913C632.101 43.6424 623.951 42.1179 615.156 42.1179C606.243 42.1179 597.976 43.6424 590.354 46.6913C582.849 49.7403 576.281 54.0206 570.653 59.5322C565.024 65.0438 560.626 71.5521 557.46 79.0573C554.411 86.5624 552.887 94.7712 552.887 103.684C552.887 103.812 552.887 103.94 552.887 104.067H570.83C570.829 103.94 570.828 103.812 570.828 103.684C570.828 95.0057 572.763 87.3247 576.633 80.6404C580.503 73.9561 585.78 68.6791 592.464 64.8092C599.149 60.9394 606.713 59.0045 615.156 59.0045C623.599 59.0045 631.104 60.9394 637.671 64.8092C644.238 68.6791 649.398 73.9561 653.151 80.6404C656.936 87.1786 658.87 94.6706 658.953 103.116H676.895Z" fill="url(#paint19_linear_189_102)"/>
<path d="M513.322 121.51C513.997 125.26 514.875 128.939 515.944 132.537L522.433 123.885C525.047 120.399 530.276 120.399 532.89 123.885C538.99 132.018 551.189 132.018 557.289 123.885C559.903 120.399 565.132 120.399 567.746 123.885C573.846 132.018 586.045 132.018 592.145 123.885C594.759 120.399 599.988 120.399 602.602 123.885C608.702 132.018 620.902 132.018 627.001 123.885C629.616 120.399 634.844 120.399 637.458 123.885C643.558 132.018 655.758 132.018 661.858 123.885C664.472 120.399 669.7 120.399 672.314 123.885C678.414 132.018 690.614 132.018 696.714 123.885C699.328 120.399 704.556 120.399 707.171 123.885L713.66 132.537C714.729 128.94 715.607 125.26 716.282 121.51L714.142 118.656C708.042 110.523 695.842 110.523 689.742 118.656C687.128 122.142 681.9 122.142 679.286 118.656C673.186 110.523 660.986 110.523 654.886 118.656C652.272 122.142 647.044 122.142 644.43 118.656C638.33 110.523 626.13 110.523 620.03 118.656C617.416 122.142 612.188 122.142 609.573 118.656C603.474 110.523 591.274 110.523 585.174 118.656C582.56 122.142 577.331 122.142 574.717 118.656C568.617 110.523 556.418 110.523 550.318 118.656C547.704 122.142 542.475 122.142 539.861 118.656C533.761 110.523 521.561 110.523 515.462 118.656L513.322 121.51Z" fill="url(#paint20_linear_189_102)"/>
<path d="M521.272 146.592C519.878 143.599 518.624 140.528 517.518 137.387C523.987 131.434 534.589 132.244 539.935 139.817C542.449 143.378 547.73 143.378 550.244 139.817C556.229 131.337 568.806 131.337 574.791 139.817C577.305 143.378 582.586 143.378 585.1 139.817C591.086 131.337 603.662 131.337 609.647 139.817C612.161 143.378 617.443 143.378 619.956 139.817C625.942 131.337 638.518 131.337 644.503 139.817C647.017 143.378 652.299 143.378 654.812 139.817C660.798 131.337 673.374 131.337 679.36 139.817C681.873 143.378 687.155 143.378 689.669 139.817C695.014 132.244 705.617 131.434 712.086 137.388C710.98 140.529 709.726 143.599 708.332 146.592L707.097 144.842C704.583 141.281 699.301 141.281 696.788 144.842C690.802 153.322 678.226 153.322 672.241 144.842C669.727 141.281 664.445 141.281 661.932 144.842C655.946 153.322 643.37 153.322 637.384 144.842C634.871 141.281 629.589 141.281 627.075 144.842C621.09 153.322 608.514 153.322 602.528 144.842C600.014 141.281 594.733 141.281 592.219 144.842C586.234 153.322 573.658 153.322 567.672 144.842C565.158 141.281 559.877 141.281 557.363 144.842C551.377 153.322 538.801 153.322 532.816 144.842C530.302 141.281 525.021 141.281 522.507 144.842L521.272 146.592Z" fill="url(#paint21_linear_189_102)"/>
<path d="M524.806 153.489C526.571 156.637 528.497 159.683 530.573 162.615C531.451 163.051 532.249 163.696 532.89 164.55C538.99 172.683 551.189 172.683 557.289 164.55C559.903 161.065 565.132 161.065 567.746 164.55C573.846 172.683 586.045 172.683 592.145 164.55C594.759 161.065 599.988 161.065 602.602 164.55C608.702 172.683 620.902 172.683 627.001 164.55C629.616 161.065 634.844 161.065 637.458 164.55C643.558 172.683 655.758 172.683 661.858 164.55C664.472 161.065 669.7 161.065 672.314 164.55C678.414 172.683 690.614 172.683 696.714 164.55C697.355 163.695 698.153 163.05 699.032 162.615C701.107 159.682 703.033 156.637 704.799 153.489C699.348 152.46 693.43 154.405 689.742 159.322C687.128 162.807 681.9 162.807 679.286 159.322C673.186 151.189 660.986 151.189 654.886 159.322C652.272 162.807 647.044 162.807 644.43 159.322C638.33 151.189 626.13 151.189 620.03 159.322C617.416 162.807 612.188 162.807 609.573 159.322C603.474 151.189 591.274 151.189 585.174 159.322C582.56 162.807 577.331 162.807 574.717 159.322C568.617 151.189 556.418 151.189 550.318 159.322C547.704 162.807 542.475 162.807 539.861 159.322C536.173 154.405 530.256 152.461 524.806 153.489Z" fill="url(#paint22_linear_189_102)"/>
<path d="M555.128 187.222C552.649 185.459 550.25 183.589 547.94 181.62C548.842 181.184 549.662 180.529 550.318 179.655C556.418 171.522 568.617 171.522 574.717 179.655C577.331 183.14 582.56 183.14 585.174 179.655C591.274 171.522 603.474 171.522 609.573 179.655C612.188 183.14 617.416 183.14 620.03 179.655C626.13 171.522 638.33 171.522 644.43 179.655C647.044 183.14 652.272 183.14 654.886 179.655C660.986 171.522 673.186 171.522 679.286 179.655C679.942 180.529 680.762 181.184 681.664 181.62C679.354 183.59 676.955 185.459 674.475 187.222C673.695 186.536 672.969 185.756 672.314 184.883C669.7 181.397 664.472 181.397 661.858 184.883C655.758 193.016 643.558 193.016 637.458 184.883C634.844 181.397 629.616 181.397 627.001 184.883C620.902 193.016 608.702 193.016 602.602 184.883C599.988 181.397 594.759 181.397 592.145 184.883C586.045 193.016 573.846 193.016 567.746 184.883C565.132 181.397 559.903 181.397 557.289 184.883C556.634 185.756 555.909 186.536 555.128 187.222Z" fill="url(#paint23_linear_189_102)"/>
<path d="M602.602 205.216C602.686 205.328 602.772 205.439 602.858 205.548C606.777 206 610.762 206.232 614.802 206.232C618.842 206.232 622.827 206 626.745 205.548C626.832 205.439 626.917 205.328 627.001 205.216C629.263 202.201 633.48 201.794 636.269 203.995C639.554 203.299 642.78 202.447 645.941 201.447C645.38 201.059 644.868 200.572 644.43 199.987C638.33 191.854 626.13 191.854 620.03 199.987C617.416 203.473 612.188 203.473 609.573 199.987C603.474 191.854 591.274 191.854 585.174 199.987C584.735 200.572 584.223 201.059 583.662 201.447C586.823 202.447 590.05 203.299 593.334 203.995C596.124 201.794 600.341 202.201 602.602 205.216Z" fill="url(#paint24_linear_189_102)"/>
<path fill-rule="evenodd" clip-rule="evenodd" d="M135.105 200.266C134.767 201.213 135.469 202.209 136.474 202.209H163.279C163.893 202.209 164.441 201.822 164.648 201.243L180.14 157.822C187.811 154.215 209.681 144.638 225.679 144.638C241.471 144.638 262.983 153.969 270.913 157.679L286.457 201.243C286.663 201.822 287.211 202.209 287.826 202.209H314.63C315.636 202.209 316.337 201.213 316 200.266L245.824 3.6027C245.618 3.02396 245.07 2.63758 244.455 2.63758H206.649C206.035 2.63758 205.487 3.02396 205.28 3.6027L135.105 200.266ZM258.978 124.228L225.552 30.5438L192.085 124.343C201.991 120.468 215.115 116.292 225.679 116.292C236.139 116.292 249.108 120.385 258.978 124.228Z" fill="url(#paint25_linear_189_102)"/>
<defs>
<linearGradient id="paint0_linear_189_102" x1="0" y1="0" x2="190.118" y2="547.271" gradientUnits="userSpaceOnUse">
<stop stop-color="#79A3A1"/>
<stop offset="1" stop-color="#0B95BC"/>
</linearGradient>
<linearGradient id="paint1_linear_189_102" x1="0" y1="0" x2="190.118" y2="547.271" gradientUnits="userSpaceOnUse">
<stop stop-color="#79A3A1"/>
<stop offset="1" stop-color="#0B95BC"/>
</linearGradient>
<linearGradient id="paint2_linear_189_102" x1="0" y1="0" x2="190.118" y2="547.271" gradientUnits="userSpaceOnUse">
<stop stop-color="#79A3A1"/>
<stop offset="1" stop-color="#0B95BC"/>
</linearGradient>
<linearGradient id="paint3_linear_189_102" x1="0" y1="0" x2="190.118" y2="547.271" gradientUnits="userSpaceOnUse">
<stop stop-color="#79A3A1"/>
<stop offset="1" stop-color="#0B95BC"/>
</linearGradient>
<linearGradient id="paint4_linear_189_102" x1="0" y1="0" x2="190.118" y2="547.271" gradientUnits="userSpaceOnUse">
<stop stop-color="#79A3A1"/>
<stop offset="1" stop-color="#0B95BC"/>
</linearGradient>
<linearGradient id="paint5_linear_189_102" x1="0" y1="0" x2="190.118" y2="547.271" gradientUnits="userSpaceOnUse">
<stop stop-color="#79A3A1"/>
<stop offset="1" stop-color="#0B95BC"/>
</linearGradient>
<linearGradient id="paint6_linear_189_102" x1="0" y1="0" x2="190.118" y2="547.271" gradientUnits="userSpaceOnUse">
<stop stop-color="#79A3A1"/>
<stop offset="1" stop-color="#0B95BC"/>
</linearGradient>
<linearGradient id="paint7_linear_189_102" x1="0" y1="0" x2="190.118" y2="547.271" gradientUnits="userSpaceOnUse">
<stop stop-color="#79A3A1"/>
<stop offset="1" stop-color="#0B95BC"/>
</linearGradient>
<linearGradient id="paint8_linear_189_102" x1="0" y1="0" x2="190.118" y2="547.271" gradientUnits="userSpaceOnUse">
<stop stop-color="#79A3A1"/>
<stop offset="1" stop-color="#0B95BC"/>
</linearGradient>
<linearGradient id="paint9_linear_189_102" x1="0" y1="0" x2="190.118" y2="547.271" gradientUnits="userSpaceOnUse">
<stop stop-color="#79A3A1"/>
<stop offset="1" stop-color="#0B95BC"/>
</linearGradient>
<linearGradient id="paint10_linear_189_102" x1="0" y1="0" x2="190.118" y2="547.271" gradientUnits="userSpaceOnUse">
<stop stop-color="#79A3A1"/>
<stop offset="1" stop-color="#0B95BC"/>
</linearGradient>
<linearGradient id="paint11_linear_189_102" x1="0" y1="0" x2="190.118" y2="547.271" gradientUnits="userSpaceOnUse">
<stop stop-color="#79A3A1"/>
<stop offset="1" stop-color="#0B95BC"/>
</linearGradient>
<linearGradient id="paint12_linear_189_102" x1="0" y1="0" x2="190.118" y2="547.271" gradientUnits="userSpaceOnUse">
<stop stop-color="#79A3A1"/>
<stop offset="1" stop-color="#0B95BC"/>
</linearGradient>
<linearGradient id="paint13_linear_189_102" x1="0" y1="0" x2="190.118" y2="547.271" gradientUnits="userSpaceOnUse">
<stop stop-color="#79A3A1"/>
<stop offset="1" stop-color="#0B95BC"/>
</linearGradient>
<linearGradient id="paint14_linear_189_102" x1="0" y1="0" x2="190.118" y2="547.271" gradientUnits="userSpaceOnUse">
<stop stop-color="#79A3A1"/>
<stop offset="1" stop-color="#0B95BC"/>
</linearGradient>
<linearGradient id="paint15_linear_189_102" x1="0" y1="0" x2="190.118" y2="547.271" gradientUnits="userSpaceOnUse">
<stop stop-color="#79A3A1"/>
<stop offset="1" stop-color="#0B95BC"/>
</linearGradient>
<linearGradient id="paint16_linear_189_102" x1="0" y1="0" x2="190.118" y2="547.271" gradientUnits="userSpaceOnUse">
<stop stop-color="#79A3A1"/>
<stop offset="1" stop-color="#0B95BC"/>
</linearGradient>
<linearGradient id="paint17_linear_189_102" x1="0" y1="0" x2="190.118" y2="547.271" gradientUnits="userSpaceOnUse">
<stop stop-color="#79A3A1"/>
<stop offset="1" stop-color="#0B95BC"/>
</linearGradient>
<linearGradient id="paint18_linear_189_102" x1="0" y1="0" x2="190.118" y2="547.271" gradientUnits="userSpaceOnUse">
<stop stop-color="#79A3A1"/>
<stop offset="1" stop-color="#0B95BC"/>
</linearGradient>
<linearGradient id="paint19_linear_189_102" x1="0" y1="0" x2="190.118" y2="547.271" gradientUnits="userSpaceOnUse">
<stop stop-color="#79A3A1"/>
<stop offset="1" stop-color="#0B95BC"/>
</linearGradient>
<linearGradient id="paint20_linear_189_102" x1="0" y1="0" x2="190.118" y2="547.271" gradientUnits="userSpaceOnUse">
<stop stop-color="#79A3A1"/>
<stop offset="1" stop-color="#0B95BC"/>
</linearGradient>
<linearGradient id="paint21_linear_189_102" x1="0" y1="0" x2="190.118" y2="547.271" gradientUnits="userSpaceOnUse">
<stop stop-color="#79A3A1"/>
<stop offset="1" stop-color="#0B95BC"/>
</linearGradient>
<linearGradient id="paint22_linear_189_102" x1="0" y1="0" x2="190.118" y2="547.271" gradientUnits="userSpaceOnUse">
<stop stop-color="#79A3A1"/>
<stop offset="1" stop-color="#0B95BC"/>
</linearGradient>
<linearGradient id="paint23_linear_189_102" x1="0" y1="0" x2="190.118" y2="547.271" gradientUnits="userSpaceOnUse">
<stop stop-color="#79A3A1"/>
<stop offset="1" stop-color="#0B95BC"/>
</linearGradient>
<linearGradient id="paint24_linear_189_102" x1="0" y1="0" x2="190.118" y2="547.271" gradientUnits="userSpaceOnUse">
<stop stop-color="#79A3A1"/>
<stop offset="1" stop-color="#0B95BC"/>
</linearGradient>
<linearGradient id="paint25_linear_189_102" x1="0" y1="0" x2="190.118" y2="547.271" gradientUnits="userSpaceOnUse">
<stop stop-color="#79A3A1"/>
<stop offset="1" stop-color="#0B95BC"/>
</linearGradient>
</defs>
</svg>
